<svg xmlns="http://www.w3.org/2000/svg" width="268" height="268" viewBox="0 0 268 268"><rect width="100%" height="100%" fill="#343434"/><path fill="#FFFFFF" d="M72.95 121.555v3.87h-7.63v21.44h-4.71v-21.44h-7.63v-3.87h19.97Zm6.97-.7v9.98q1.04-.98 2.3-1.59 1.27-.62 2.96-.62 1.47 0 2.61.5t1.9 1.4q.76.9 1.15 2.16.4 1.25.4 2.75v11.43h-4.32v-11.43q0-1.64-.76-2.54-.75-.91-2.29-.91-1.12 0-2.1.51t-1.85 1.38v12.99h-4.33v-26.01h4.33Zm26.56 8.05h4.32v17.96h-2.64q-.86 0-1.08-.79l-.3-1.43q-1.11 1.12-2.43 1.81-1.33.69-3.14.69-1.47 0-2.6-.5-1.12-.5-1.9-1.41-.76-.91-1.16-2.16-.39-1.25-.39-2.76v-11.41h4.32v11.41q0 1.65.76 2.55.76.9 2.29.9 1.12 0 2.1-.5.97-.5 1.85-1.37v-12.99Zm12.92 17.96h-4.33v-17.96h2.65q.84 0 1.1.79l.28 1.33q.47-.52.99-.96.51-.44 1.1-.75.59-.32 1.26-.5.67-.19 1.48-.19 1.7 0 2.79.92t1.64 2.44q.42-.89 1.05-1.53.63-.64 1.38-1.04.75-.4 1.6-.59.85-.2 1.71-.2 1.48 0 2.64.46 1.15.45 1.94 1.33.79.87 1.2 2.13.41 1.26.41 2.89v11.43h-4.32v-11.43q0-1.71-.75-2.58-.76-.87-2.21-.87-.66 0-1.23.23t-1 .66q-.43.43-.67 1.07-.25.65-.25 1.49v11.43h-4.34v-11.43q0-1.8-.73-2.62-.72-.83-2.12-.83-.95 0-1.76.47-.81.46-1.51 1.27v13.14Zm29.31-12.71v8.05q.73.9 1.6 1.26.87.37 1.83.37 1 0 1.79-.36.8-.36 1.36-1.12.56-.76.86-1.94.29-1.18.29-2.83 0-2.95-.98-4.27-.98-1.33-2.81-1.33-1.25 0-2.17.57-.93.57-1.77 1.6Zm0-13.3v10.26q1.08-1.14 2.4-1.81 1.33-.68 3.02-.68 1.56 0 2.81.62 1.25.61 2.14 1.76.88 1.14 1.35 2.77.48 1.63.48 3.66 0 2.18-.55 3.97-.54 1.78-1.55 3.05-1 1.27-2.42 1.97t-3.15.7q-.84 0-1.52-.16-.68-.17-1.26-.47-.58-.3-1.06-.72-.48-.43-.92-.96l-.19 1.21q-.11.45-.36.65-.25.19-.69.19h-2.85v-26.01h4.32Zm19.28 8.84.3 1.42q.54-.54 1.15-1.01.6-.46 1.27-.78.68-.33 1.45-.51.77-.19 1.68-.19 1.47 0 2.61.5 1.13.5 1.89 1.4.77.9 1.16 2.16.39 1.25.39 2.75v11.43h-4.32v-11.43q0-1.64-.75-2.54-.75-.91-2.29-.91-1.12 0-2.1.51t-1.86 1.38v12.99h-4.32v-17.96h2.64q.84 0 1.1.79Zm25.48 12.53v-3.03q-1.87.09-3.15.33-1.27.23-2.04.6t-1.11.86q-.33.49-.33 1.07 0 1.13.67 1.62.68.49 1.76.49 1.33 0 2.3-.48.98-.48 1.9-1.46Zm-9.13-9.43-.77-1.38q3.1-2.84 7.45-2.84 1.58 0 2.82.52 1.24.51 2.1 1.43.86.92 1.3 2.2.45 1.28.45 2.8v11.34h-1.96q-.61 0-.94-.18-.34-.19-.53-.75l-.38-1.29q-.69.61-1.33 1.07-.65.47-1.35.78-.7.32-1.5.48-.79.17-1.76.17-1.13 0-2.1-.31-.96-.3-1.66-.92-.7-.61-1.08-1.52-.39-.91-.39-2.12 0-.68.23-1.35.23-.68.74-1.29.52-.61 1.34-1.15.82-.55 2.02-.95 1.2-.4 2.79-.65 1.6-.26 3.64-.31v-1.05q0-1.8-.77-2.67-.77-.87-2.22-.87-1.05 0-1.74.25-.69.24-1.22.55-.52.31-.95.55-.43.25-.95.25-.46 0-.77-.24-.32-.24-.51-.55Zm17.55-3.89h4.34v17.96h-4.34v-17.96Zm4.94-5.23q0 .56-.23 1.05t-.61.86q-.37.37-.88.59-.51.21-1.08.21-.56 0-1.06-.21-.5-.22-.87-.59t-.59-.86q-.21-.49-.21-1.05 0-.58.21-1.08.22-.51.59-.88t.87-.58q.5-.22 1.06-.22.57 0 1.08.22.51.21.88.58.38.37.61.88.23.5.23 1.08Zm3.86-2.82h4.33v26.01h-4.33v-26.01Z"/></svg>